<svg width="20" height="20" viewBox="0 0 20 20" fill="none" xmlns="http://www.w3.org/2000/svg">
<path d="M17.5 6.25V5C17.5 4.55798 17.3244 4.13405 17.0118 3.82149C16.6993 3.50893 16.2754 3.33334 15.8333 3.33334H4.16667C3.72464 3.33334 3.30072 3.50893 2.98816 3.82149C2.67559 4.13405 2.5 4.55798 2.5 5V16.6667C2.5 17.1087 2.67559 17.5326 2.98816 17.8452C3.30072 18.1577 3.72464 18.3333 4.16667 18.3333H7.08333" stroke="#6D4C3D" stroke-width="2" stroke-linecap="round" stroke-linejoin="round"/>
<path d="M13.3333 1.66666V5" stroke="#6D4C3D" stroke-width="2" stroke-linecap="round" stroke-linejoin="round"/>
<path d="M6.66666 1.66666V5" stroke="#6D4C3D" stroke-width="2" stroke-linecap="round" stroke-linejoin="round"/>
<path d="M2.5 8.33334H6.66667" stroke="#6D4C3D" stroke-width="2" stroke-linecap="round" stroke-linejoin="round"/>
<path d="M14.5833 14.5833L13.3333 13.5833V11.6667" stroke="#6D4C3D" stroke-width="2" stroke-linecap="round" stroke-linejoin="round"/>
<path d="M13.3333 18.3333C16.0948 18.3333 18.3333 16.0948 18.3333 13.3333C18.3333 10.5719 16.0948 8.33334 13.3333 8.33334C10.5719 8.33334 8.33334 10.5719 8.33334 13.3333C8.33334 16.0948 10.5719 18.3333 13.3333 18.3333Z" stroke="#6D4C3D" stroke-width="2" stroke-linecap="round" stroke-linejoin="round"/>
</svg>
