<svg width="23" height="23" viewBox="0 0 23 23" fill="none" xmlns="http://www.w3.org/2000/svg">
<path d="M11.5 11.4933C11.3094 11.4933 11.1266 11.569 10.9918 11.7038C10.857 11.8386 10.7812 12.0214 10.7812 12.212V12.2178C10.7812 12.6145 11.1032 12.9365 11.5 12.9365H11.5057C11.6964 12.9365 11.8792 12.8608 12.014 12.726C12.1488 12.5912 12.2245 12.4084 12.2245 12.2178V12.212C12.2245 12.0214 12.1488 11.8386 12.014 11.7038C11.8792 11.569 11.6964 11.4933 11.5057 11.4933H11.5ZM11.5 15.8067C11.3094 15.8067 11.1266 15.8825 10.9918 16.0173C10.857 16.1521 10.7812 16.3349 10.7812 16.5255V16.5303C10.7812 16.927 11.1023 17.249 11.5 17.249H11.5048C11.6954 17.249 11.8782 17.1733 12.013 17.0385C12.1478 16.9037 12.2235 16.7209 12.2235 16.5303V16.5255C12.2235 16.3349 12.1478 16.1521 12.013 16.0173C11.8782 15.8825 11.6954 15.8067 11.5048 15.8067H11.5ZM8.62403 16.5255C8.62403 16.3349 8.69976 16.1521 8.83455 16.0173C8.96934 15.8825 9.15216 15.8067 9.34278 15.8067H9.34854C9.53916 15.8067 9.72198 15.8825 9.85677 16.0173C9.99156 16.1521 10.0673 16.3349 10.0673 16.5255V16.5312C10.0673 16.7219 9.99156 16.9047 9.85677 17.0395C9.72198 17.1743 9.53916 17.25 9.34854 17.25H9.34278C9.15216 17.25 8.96934 17.1743 8.83455 17.0395C8.69976 16.9047 8.62403 16.7219 8.62403 16.5312V16.5255ZM7.18654 15.8067C6.99591 15.8067 6.81309 15.8825 6.6783 16.0173C6.54351 16.1521 6.46779 16.3349 6.46779 16.5255V16.5303C6.46779 16.927 6.78979 17.249 7.18654 17.249H7.19133C7.38195 17.249 7.56477 17.1733 7.69956 17.0385C7.83435 16.9037 7.91008 16.7209 7.91008 16.5303V16.5255C7.91008 16.3349 7.83435 16.1521 7.69956 16.0173C7.56477 15.8825 7.38195 15.8067 7.19133 15.8067H7.18654ZM12.9365 14.3721C12.9365 14.1815 13.0123 13.9987 13.1471 13.8639C13.2818 13.7291 13.4647 13.6534 13.6553 13.6534H13.661C13.8517 13.6534 14.0345 13.7291 14.1693 13.8639C14.3041 13.9987 14.3798 14.1815 14.3798 14.3721V14.3769C14.3798 14.5675 14.3041 14.7504 14.1693 14.8851C14.0345 15.0199 13.8517 15.0957 13.661 15.0957H13.6553C13.4647 15.0957 13.2818 15.0199 13.1471 14.8851C13.0123 14.7504 12.9365 14.5675 12.9365 14.3769V14.3721ZM13.6562 15.8067C13.4656 15.8067 13.2828 15.8825 13.148 16.0173C13.0132 16.1521 12.9375 16.3349 12.9375 16.5255V16.5312C12.9375 16.928 13.2585 17.25 13.6562 17.25H13.661C13.8517 17.25 14.0345 17.1743 14.1693 17.0395C14.3041 16.9047 14.3798 16.7219 14.3798 16.5312V16.5255C14.3798 16.3349 14.3041 16.1521 14.1693 16.0173C14.0345 15.8825 13.8517 15.8067 13.661 15.8067H13.6562ZM15.0937 14.3702C15.0937 14.1796 15.1695 13.9968 15.3043 13.862C15.4391 13.7272 15.6219 13.6515 15.8125 13.6515H15.8173C16.0079 13.6515 16.1907 13.7272 16.3255 13.862C16.4603 13.9968 16.536 14.1796 16.536 14.3702V14.376C16.536 14.5666 16.4603 14.7494 16.3255 14.8842C16.1907 15.019 16.0079 15.0947 15.8173 15.0947H15.8125C15.6219 15.0947 15.4391 15.019 15.3043 14.8842C15.1695 14.7494 15.0937 14.5666 15.0937 14.376V14.3702ZM12.9356 12.212C12.9356 12.0214 13.0113 11.8386 13.1461 11.7038C13.2809 11.569 13.4637 11.4933 13.6543 11.4933H15.8106C16.0012 11.4933 16.184 11.569 16.3188 11.7038C16.4536 11.8386 16.5293 12.0214 16.5293 12.212C16.5293 12.4027 16.4536 12.5855 16.3188 12.7203C16.184 12.8551 16.0012 12.9308 15.8106 12.9308H13.6543C13.4637 12.9308 13.2809 12.8551 13.1461 12.7203C13.0113 12.5855 12.9356 12.4027 12.9356 12.212ZM6.46683 14.3683C6.46683 14.1777 6.54255 13.9948 6.67734 13.8601C6.81214 13.7253 6.99495 13.6495 7.18558 13.6495H11.4981C11.6887 13.6495 11.8715 13.7253 12.0063 13.8601C12.1411 13.9948 12.2168 14.1777 12.2168 14.3683C12.2168 14.5589 12.1411 14.7417 12.0063 14.8765C11.8715 15.0113 11.6887 15.087 11.4981 15.087H7.18558C6.99495 15.087 6.81214 15.0113 6.67734 14.8765C6.54255 14.7417 6.46683 14.5589 6.46683 14.3683Z" fill="#DDE7DD"/>
<path fill-rule="evenodd" clip-rule="evenodd" d="M17.25 2.86829C17.25 2.67766 17.1743 2.49484 17.0395 2.36005C16.9047 2.22526 16.7219 2.14954 16.5312 2.14954C16.3406 2.14954 16.1578 2.22526 16.023 2.36005C15.8882 2.49484 15.8125 2.67766 15.8125 2.86829V4.30579H7.18749V2.86924C7.18749 2.67862 7.11177 2.4958 6.97698 2.36101C6.84219 2.22622 6.65937 2.15049 6.46874 2.15049C6.27812 2.15049 6.0953 2.22622 5.96051 2.36101C5.82572 2.4958 5.74999 2.67862 5.74999 2.86924V4.30387H5.02933C4.26683 4.30387 3.53556 4.60677 2.9964 5.14594C2.45723 5.6851 2.15433 6.41637 2.15433 7.17887V17.962C2.15433 18.7245 2.45723 19.4558 2.9964 19.995C3.53556 20.5341 4.26683 20.837 5.02933 20.837H17.9668C18.7293 20.837 19.4606 20.5341 19.9998 19.995C20.5389 19.4558 20.8418 18.7245 20.8418 17.962V7.17983C20.8418 6.41733 20.5389 5.68606 19.9998 5.1469C19.4606 4.60773 18.7293 4.30483 17.9668 4.30483H17.25V2.86829ZM3.59183 17.962V10.7745C3.59183 10.3933 3.74328 10.0277 4.01286 9.75807C4.28244 9.48849 4.64808 9.33704 5.02933 9.33704H17.9668C18.3481 9.33704 18.7137 9.48849 18.9833 9.75807C19.2529 10.0277 19.4043 10.3933 19.4043 10.7745V17.962C19.4043 18.3433 19.2529 18.7089 18.9833 18.9785C18.7137 19.2481 18.3481 19.3995 17.9668 19.3995H5.02933C4.64808 19.3995 4.28244 19.2481 4.01286 18.9785C3.74328 18.7089 3.59183 18.3433 3.59183 17.962Z" fill="#DDE7DD"/>
</svg>
