<svg width="22" height="22" viewBox="0 0 22 22" fill="none" xmlns="http://www.w3.org/2000/svg">
<path fill-rule="evenodd" clip-rule="evenodd" d="M5.01417 5.01416C5.14308 4.88542 5.31782 4.8131 5.50001 4.8131C5.68219 4.8131 5.85693 4.88542 5.98584 5.01416L11 10.0283L16.0142 5.01416C16.0771 4.94662 16.153 4.89244 16.2373 4.85487C16.3217 4.81729 16.4127 4.79708 16.505 4.79546C16.5973 4.79383 16.689 4.81081 16.7746 4.84539C16.8602 4.87996 16.938 4.93143 17.0033 4.99671C17.0686 5.062 17.12 5.13976 17.1546 5.22537C17.1892 5.31097 17.2062 5.40267 17.2045 5.49498C17.2029 5.58729 17.1827 5.67833 17.1451 5.76266C17.1076 5.84699 17.0534 5.92289 16.9858 5.98583L11.9717 11L16.9858 16.0142C17.0534 16.0771 17.1076 16.153 17.1451 16.2373C17.1827 16.3217 17.2029 16.4127 17.2045 16.505C17.2062 16.5973 17.1892 16.689 17.1546 16.7746C17.12 16.8602 17.0686 16.938 17.0033 17.0033C16.938 17.0686 16.8602 17.12 16.7746 17.1546C16.689 17.1892 16.5973 17.2062 16.505 17.2045C16.4127 17.2029 16.3217 17.1827 16.2373 17.1451C16.153 17.1076 16.0771 17.0534 16.0142 16.9858L11 11.9717L5.98584 16.9858C5.85551 17.1073 5.68314 17.1734 5.50503 17.1702C5.32692 17.1671 5.15698 17.0949 5.03102 16.969C4.90506 16.843 4.8329 16.6731 4.82976 16.495C4.82662 16.3169 4.89273 16.1445 5.01417 16.0142L10.0283 11L5.01417 5.98583C4.88543 5.85693 4.81311 5.68219 4.81311 5.5C4.81311 5.31781 4.88543 5.14307 5.01417 5.01416Z" fill="#B82828" stroke="#B82828"/>
</svg>
