<svg width="26" height="25" viewBox="0 0 26 25" fill="none" xmlns="http://www.w3.org/2000/svg">
<path d="M13.4541 11.1111L20.2222 13.4353V22.9167C20.2222 23.1009 20.1461 23.2775 20.0107 23.4077C19.8752 23.538 19.6915 23.6111 19.5 23.6111H16.6111C16.4196 23.6111 16.2359 23.538 16.1004 23.4077C15.965 23.2775 15.8889 23.1009 15.8889 22.9167V18.0556H8.66667V22.9167C8.66667 23.1009 8.59057 23.2775 8.45513 23.4077C8.31969 23.538 8.13599 23.6111 7.94444 23.6111H5.05555C4.86401 23.6111 4.68031 23.538 4.54487 23.4077C4.40942 23.2775 4.33333 23.1009 4.33333 22.9167V13.6324C2.65597 13.0573 1.44444 11.5304 1.44444 9.72223C1.44444 9.35388 1.59662 9.00061 1.86751 8.74014C2.1384 8.47968 2.5058 8.33335 2.88889 8.33335C3.27198 8.33335 3.63938 8.47968 3.91026 8.74014C4.18115 9.00061 4.33333 9.35388 4.33333 9.72223C4.33405 10.0904 4.48646 10.4432 4.75719 10.7036C5.02792 10.9639 5.39491 11.1104 5.77778 11.1111H13.4541ZM24.5556 6.25001V7.6389C24.5556 8.37561 24.2512 9.08215 23.7094 9.60309C23.1676 10.124 22.4328 10.4167 21.6667 10.4167H20.2222V11.9609L14.4444 9.97701V3.47224C14.4444 2.85375 15.2217 2.54385 15.6772 2.98135L16.9086 4.16668H19.3294C19.8218 4.16668 20.4014 4.51043 20.6212 4.93447L20.9444 5.55557H23.8333C24.0249 5.55557 24.2086 5.62873 24.344 5.75897C24.4795 5.8892 24.5556 6.06583 24.5556 6.25001ZM19.5 6.25001C19.5 6.11266 19.4576 5.9784 19.3783 5.8642C19.2989 5.75 19.1861 5.66099 19.0542 5.60843C18.9222 5.55587 18.777 5.54212 18.6369 5.56891C18.4968 5.59571 18.3681 5.66185 18.2671 5.75897C18.1661 5.85609 18.0973 5.97982 18.0694 6.11453C18.0416 6.24924 18.0559 6.38887 18.1105 6.51577C18.1652 6.64266 18.2578 6.75112 18.3765 6.82742C18.4953 6.90373 18.6349 6.94446 18.7778 6.94446C18.9693 6.94446 19.153 6.87129 19.2885 6.74106C19.4239 6.61083 19.5 6.43419 19.5 6.25001Z" fill="#DDE7DD"/>
</svg>
