<svg width="26" height="24" viewBox="0 0 26 24" fill="none" xmlns="http://www.w3.org/2000/svg">
<path d="M21.6667 4H4.33333C3.13842 4 2.16667 4.897 2.16667 6V18C2.16667 19.103 3.13842 20 4.33333 20H21.6667C22.8616 20 23.8333 19.103 23.8333 18V6C23.8333 4.897 22.8616 4 21.6667 4ZM21.6667 6V6.511L13 12.734L4.33333 6.512V6H21.6667ZM4.33333 18V9.044L12.3348 14.789C12.5245 14.9265 12.7588 15.0013 13 15.0013C13.2412 15.0013 13.4755 14.9265 13.6652 14.789L21.6667 9.044L21.6688 18H4.33333Z" fill="#6D4C3D"/>
</svg>
