<svg width="33" height="30" viewBox="0 0 33 30" fill="none" xmlns="http://www.w3.org/2000/svg">
<path d="M3.23822 18.069C3.50491 18.0621 3.76743 18.0098 4.01501 17.9153L4.01501 23.4095L4.01501 23.41C4.01787 24.9571 4.62679 26.4405 5.70932 27.5353C6.79195 28.6302 8.26008 29.2471 9.79237 29.25H9.79284H23.1526H23.1531C24.6854 29.2471 26.1535 28.6302 27.2361 27.5353C28.3187 26.4405 28.9276 24.9571 28.9304 23.41V23.4095V17.915C29.1961 18.0163 29.4788 18.0689 29.7652 18.0691L29.766 18.0691C30.1227 18.0681 30.4748 17.9892 30.7983 17.8379C31.3062 17.6156 31.7223 17.2238 31.9776 16.7287C32.233 16.2333 32.3119 15.6644 32.2013 15.1174L29.929 2.82309C29.8762 2.49935 29.7602 2.18934 29.5876 1.91113C29.4145 1.63211 29.188 1.39063 28.9211 1.20098C28.6543 1.01132 28.3526 0.877322 28.0336 0.806973C27.7224 0.738336 27.4009 0.731662 27.0873 0.787243H26.9756H26.9382L26.9024 0.798201L19.6022 3.03388H13.394L6.17562 0.881264L6.17568 0.88107L6.16592 0.878582C5.85144 0.798438 5.52438 0.781869 5.20351 0.829844C4.88266 0.877818 4.57445 0.989372 4.29657 1.15799C4.01869 1.32661 3.77665 1.54893 3.58423 1.81209C3.39182 2.07524 3.25277 2.37407 3.17495 2.69141L3.17133 2.70618L3.16953 2.72129C3.16388 2.76848 3.16258 2.81607 3.16562 2.86345L0.795945 15.117C0.795931 15.1171 0.795918 15.1171 0.795905 15.1172C0.689175 15.664 0.769806 16.2314 1.02476 16.7259C1.27938 17.2199 1.69291 17.612 2.19788 17.8374C2.52161 17.9891 2.8741 18.0681 3.23112 18.0691L3.23112 18.0692L3.23822 18.069ZM23.1605 26.5139L23.1605 26.5138H23.1526H17.8748V25.0901L19.6921 23.2522C19.6923 23.252 19.6926 23.2517 19.6929 23.2515C19.8194 23.1252 19.9197 22.9749 19.9882 22.8094C20.0568 22.6436 20.0921 22.4658 20.0921 22.2862C20.0921 22.1067 20.0568 21.9288 19.9882 21.763C19.9198 21.5977 19.8195 21.4475 19.6932 21.3213C19.5675 21.1933 19.4179 21.0915 19.2528 21.0219C19.0874 20.9522 18.9098 20.9162 18.7304 20.9162C18.5509 20.9162 18.3733 20.9522 18.2079 21.0219C18.0424 21.0917 17.8924 21.1938 17.7665 21.3223L17.7665 21.3223L17.7636 21.3254L16.5373 22.6203L15.2724 21.3228L15.2717 21.3221C15.0183 21.0641 14.6734 20.918 14.3126 20.9168C13.9518 20.9156 13.6059 21.0594 13.3508 21.3157C13.0958 21.5719 12.9524 21.9194 12.9512 22.2817C12.95 22.644 13.0912 22.9925 13.3445 23.2503L13.3451 23.2509L15.1637 25.0901V26.5138H9.88583C9.07341 26.5138 8.29368 26.1875 7.71834 25.6056C7.14291 25.0236 6.81914 24.2337 6.81914 23.4095V14.9782L13.9249 5.73871H19.2168L26.3226 14.9782V23.4095V23.4097C26.3228 23.826 26.2403 24.238 26.08 24.6213C25.9197 25.0046 25.685 25.3512 25.3899 25.6406C25.0948 25.93 24.7454 26.1564 24.3624 26.3063C23.9795 26.4563 23.5708 26.5269 23.1605 26.5139ZM13.5042 17.2533L13.5027 17.0048H13.4353C13.3808 16.599 13.1997 16.2184 12.9144 15.9206C12.5714 15.5625 12.1043 15.3517 11.6104 15.3331L11.6104 15.3329L11.6026 15.3329C11.2225 15.3305 10.8505 15.4425 10.5339 15.6543C10.2174 15.866 9.9707 16.1679 9.82474 16.5211C9.6788 16.8744 9.64004 17.2634 9.71328 17.6388C9.78652 18.0142 9.96855 18.3595 10.2367 18.6306C10.5048 18.9018 10.8469 19.0865 11.2198 19.1609C11.5926 19.2353 11.9789 19.1959 12.3294 19.0478C12.6798 18.8997 12.9784 18.6498 13.1874 18.3302C13.3964 18.0107 13.5065 17.6358 13.5042 17.2533ZM23.4543 17.2533L23.4527 17.0048H23.3853C23.3309 16.599 23.1497 16.2184 22.8645 15.9206C22.5215 15.5625 22.0544 15.3517 21.5605 15.3331L21.5605 15.3329L21.5527 15.3329C21.1726 15.3305 20.8006 15.4425 20.484 15.6543C20.1675 15.866 19.9208 16.1679 19.7748 16.5211C19.6289 16.8744 19.5901 17.2634 19.6634 17.6388C19.7366 18.0142 19.9186 18.3595 20.1867 18.6306C20.4549 18.9018 20.797 19.0865 21.1699 19.1609C21.5427 19.2353 21.929 19.1959 22.2795 19.0478C22.6299 18.8997 22.9284 18.6498 23.1374 18.3302C23.3464 18.0107 23.4566 17.6358 23.4543 17.2533ZM10.9535 5.14478L3.68715 14.6064L5.72098 3.60213L10.9535 5.14478ZM27.3176 3.60266L29.3503 14.6008L22.1249 5.14446L27.3176 3.60266Z" fill="#6D4C3D" stroke="#6D4C3D" stroke-width="0.5"/>
</svg>
