<svg width="22" height="22" viewBox="0 0 22 22" fill="none" xmlns="http://www.w3.org/2000/svg">
<path d="M15.6667 14L19 10.6667M19 10.6667L15.6667 7.33333M19 10.6667H7.33333M12.3333 14V14.8333C12.3333 15.4964 12.0699 16.1323 11.6011 16.6011C11.1323 17.0699 10.4964 17.3333 9.83333 17.3333H6.5C5.83696 17.3333 5.20107 17.0699 4.73223 16.6011C4.26339 16.1323 4 15.4964 4 14.8333V6.5C4 5.83696 4.26339 5.20107 4.73223 4.73223C5.20107 4.26339 5.83696 4 6.5 4H9.83333C10.4964 4 11.1323 4.26339 11.6011 4.73223C12.0699 5.20107 12.3333 5.83696 12.3333 6.5V7.33333" stroke="#B82828" stroke-width="1.6" stroke-linecap="round" stroke-linejoin="round"/>
</svg>
