<svg width="121" height="56" viewBox="0 0 121 56" fill="none" xmlns="http://www.w3.org/2000/svg">
<path d="M62.1953 18.8594L64.9023 21.5488L62.1953 24.2734L59.5234 21.5488L62.1953 18.8594ZM56.3242 18.8594L59.0312 21.5488L56.3242 24.2734L53.6348 21.5488L56.3242 18.8594ZM69.4902 25.873L73.0586 25.4336L73.3926 29.9512C73.4512 30.9707 73.7324 31.7324 74.2363 32.2363C74.7402 32.7285 75.5195 32.9746 76.5742 32.9746H76.9961V37H76.5742C75.25 37 74.1484 36.7539 73.2695 36.2617C72.4023 35.7578 71.6875 35.0078 71.125 34.0117C70.1172 35.0781 68.8516 35.8457 67.3281 36.3145C65.8047 36.7715 63.748 37 61.1582 37H58.2227C56.0898 37 54.1797 36.8652 52.4922 36.5957C50.8164 36.3262 49.3926 35.875 48.2207 35.2422C47.0488 34.6094 46.1523 33.7598 45.5312 32.6934C44.9219 31.627 44.6172 30.2852 44.6172 28.668C44.6172 27.7539 44.7168 26.8633 44.916 25.9961C45.127 25.1172 45.3906 24.291 45.707 23.5176L49.082 24.7832C48.8945 25.3105 48.7188 25.9023 48.5547 26.5586C48.4023 27.2031 48.3262 27.8184 48.3262 28.4043C48.3262 29.3652 48.5547 30.1445 49.0117 30.7422C49.4805 31.3398 50.1426 31.8027 50.998 32.1309C51.8652 32.4473 52.9023 32.6699 54.1094 32.7988C55.3281 32.916 56.6992 32.9746 58.2227 32.9746H61.1582C62.9512 32.9746 64.4805 32.875 65.7461 32.6758C67.0117 32.4766 67.9785 32.1133 68.6465 31.5859C69.3262 31.0586 69.666 30.3027 69.666 29.3184C69.666 28.791 69.6484 28.2168 69.6133 27.5957C69.5781 26.9629 69.5371 26.3887 69.4902 25.873ZM76.2578 32.9746H77.6641V37H76.2578V32.9746ZM79.6152 43.4688L82.1816 46.0527L79.6152 48.6191L77.0488 46.0527L79.6152 43.4688ZM82.6562 39.0039L85.2227 41.5879L82.6562 44.1543L80.0723 41.5879L82.6562 39.0039ZM76.5918 39.0039L79.1582 41.5879L76.5918 44.1543L74.0078 41.5879L76.5918 39.0039ZM82.5684 25.873L86.1367 25.4336L86.4531 29.9512C86.4883 30.6309 86.6289 31.1992 86.875 31.6562C87.1211 32.1016 87.4727 32.4355 87.9297 32.6582C88.3984 32.8691 88.9844 32.9746 89.6875 32.9746H90.0566V37H89.6523C88.8203 37 88.0879 36.9004 87.4551 36.7012C86.8223 36.4902 86.2715 36.2031 85.8027 35.8398C85.3457 35.4648 84.9473 35.0137 84.6074 34.4863C83.9512 35.3184 83.1133 35.9453 82.0938 36.3672C81.0859 36.7891 80.0254 37 78.9121 37H77.2246V32.9746H78.9121C80.3184 32.9746 81.3027 32.6934 81.8652 32.1309C82.4395 31.5566 82.7266 30.625 82.7266 29.3359C82.7266 28.7266 82.709 28.1348 82.6738 27.5605C82.6504 26.9863 82.6152 26.4238 82.5684 25.873ZM89.3711 32.9746H92.0254V37H89.3711V32.9746ZM96.9297 39.5488L99.6367 42.2383L96.9297 44.9629L94.2578 42.2383L96.9297 39.5488ZM91.0586 39.5488L93.7656 42.2383L91.0586 44.9629L88.3691 42.2383L91.0586 39.5488ZM96.8945 25.873L100.463 25.4336L100.779 29.9512C100.814 30.6309 100.955 31.1992 101.201 31.6562C101.447 32.1016 101.799 32.4355 102.256 32.6582C102.725 32.8691 103.311 32.9746 104.014 32.9746H104.383V37H103.979C103.146 37 102.414 36.9004 101.781 36.7012C101.148 36.4902 100.598 36.2031 100.129 35.8398C99.6719 35.4648 99.2734 35.0137 98.9336 34.4863C98.2773 35.3184 97.4395 35.9453 96.4199 36.3672C95.4121 36.7891 94.3516 37 93.2383 37H91.5508V32.9746H93.2383C94.6445 32.9746 95.6289 32.6934 96.1914 32.1309C96.7656 31.5566 97.0527 30.625 97.0527 29.3359C97.0527 28.7266 97.0352 28.1348 97 27.5605C96.9766 26.9863 96.9414 26.4238 96.8945 25.873ZM108.848 20.3008C109.715 20.875 110.576 21.4551 111.432 22.041C112.287 22.627 113.09 23.2305 113.84 23.8516C114.59 24.4727 115.252 25.1289 115.826 25.8203C116.412 26.5117 116.869 27.2441 117.197 28.0176C117.525 28.7793 117.689 29.5938 117.689 30.4609C117.689 32.0898 117.32 33.3789 116.582 34.3281C115.844 35.2773 114.748 35.9629 113.295 36.3848C111.854 36.7949 110.078 37 107.969 37H103.68V32.9746H107.951C109.357 32.9746 110.5 32.9043 111.379 32.7637C112.27 32.6113 112.926 32.3477 113.348 31.9727C113.781 31.5977 113.998 31.0703 113.998 30.3906C113.998 29.9102 113.811 29.418 113.436 28.9141C113.072 28.3984 112.586 27.8828 111.977 27.3672C111.367 26.8398 110.699 26.3242 109.973 25.8203C109.246 25.3047 108.514 24.7949 107.775 24.291C107.037 23.7871 106.357 23.2949 105.736 22.8145C105.314 22.4863 104.986 22.082 104.752 21.6016C104.529 21.1211 104.418 20.6289 104.418 20.125C104.418 19.5742 104.559 19.0527 104.84 18.5605C105.133 18.0566 105.578 17.6875 106.176 17.4531L119.219 12.1445V16.0996L108.848 20.3008Z" fill="#6D4C3D"/>
<path d="M3.23822 31.069C3.50491 31.0621 3.76743 31.0098 4.01501 30.9153L4.01501 36.4095L4.01501 36.41C4.01787 37.9571 4.62679 39.4405 5.70932 40.5353C6.79195 41.6302 8.26008 42.2471 9.79237 42.25H9.79284H23.1526H23.1531C24.6854 42.2471 26.1535 41.6302 27.2361 40.5353C28.3187 39.4405 28.9276 37.9571 28.9304 36.41V36.4095V30.915C29.1961 31.0163 29.4788 31.0689 29.7652 31.0691L29.766 31.0691C30.1227 31.0681 30.4748 30.9892 30.7983 30.8379C31.3062 30.6156 31.7223 30.2238 31.9776 29.7287C32.233 29.2333 32.3119 28.6644 32.2013 28.1174L29.929 15.8231C29.8762 15.4994 29.7602 15.1893 29.5876 14.9111C29.4145 14.6321 29.188 14.3906 28.9211 14.201C28.6543 14.0113 28.3526 13.8773 28.0336 13.807C27.7224 13.7383 27.4009 13.7317 27.0873 13.7872H26.9756H26.9382L26.9024 13.7982L19.6022 16.0339H13.394L6.17562 13.8813L6.17568 13.8811L6.16592 13.8786C5.85144 13.7984 5.52438 13.7819 5.20351 13.8298C4.88266 13.8778 4.57445 13.9894 4.29657 14.158C4.01869 14.3266 3.77665 14.5489 3.58423 14.8121C3.39182 15.0752 3.25277 15.3741 3.17495 15.6914L3.17133 15.7062L3.16953 15.7213C3.16388 15.7685 3.16258 15.8161 3.16562 15.8635L0.795945 28.117C0.795931 28.1171 0.795918 28.1171 0.795905 28.1172C0.689175 28.664 0.769806 29.2314 1.02476 29.7259C1.27938 30.2199 1.69291 30.612 2.19788 30.8374C2.52161 30.9891 2.8741 31.0681 3.23112 31.0691L3.23112 31.0692L3.23822 31.069ZM23.1605 39.5139L23.1605 39.5138H23.1526H17.8748V38.0901L19.6921 36.2522C19.6923 36.252 19.6926 36.2517 19.6929 36.2515C19.8194 36.1252 19.9197 35.9749 19.9882 35.8094C20.0568 35.6436 20.0921 35.4658 20.0921 35.2862C20.0921 35.1067 20.0568 34.9288 19.9882 34.763C19.9198 34.5977 19.8195 34.4475 19.6932 34.3213C19.5675 34.1933 19.4179 34.0915 19.2528 34.0219C19.0874 33.9522 18.9098 33.9162 18.7304 33.9162C18.5509 33.9162 18.3733 33.9522 18.2079 34.0219C18.0424 34.0917 17.8924 34.1938 17.7665 34.3223L17.7665 34.3223L17.7636 34.3254L16.5373 35.6203L15.2724 34.3228L15.2717 34.3221C15.0183 34.0641 14.6734 33.918 14.3126 33.9168C13.9518 33.9156 13.6059 34.0594 13.3508 34.3157C13.0958 34.5719 12.9524 34.9194 12.9512 35.2817C12.95 35.644 13.0912 35.9925 13.3445 36.2503L13.3451 36.2509L15.1637 38.0901V39.5138H9.88583C9.07341 39.5138 8.29368 39.1875 7.71834 38.6056C7.14291 38.0236 6.81914 37.2337 6.81914 36.4095V27.9782L13.9249 18.7387H19.2168L26.3226 27.9782V36.4095V36.4097C26.3228 36.826 26.2403 37.238 26.08 37.6213C25.9197 38.0046 25.685 38.3512 25.3899 38.6406C25.0948 38.93 24.7454 39.1564 24.3624 39.3063C23.9795 39.4563 23.5708 39.5269 23.1605 39.5139ZM13.5042 30.2533L13.5027 30.0048H13.4353C13.3808 29.599 13.1997 29.2184 12.9144 28.9206C12.5714 28.5625 12.1043 28.3517 11.6104 28.3331L11.6104 28.3329L11.6026 28.3329C11.2225 28.3305 10.8505 28.4425 10.5339 28.6543C10.2174 28.866 9.9707 29.1679 9.82474 29.5211C9.6788 29.8744 9.64004 30.2634 9.71328 30.6388C9.78652 31.0142 9.96855 31.3595 10.2367 31.6306C10.5048 31.9018 10.8469 32.0865 11.2198 32.1609C11.5926 32.2353 11.9789 32.1959 12.3294 32.0478C12.6798 31.8997 12.9784 31.6498 13.1874 31.3302C13.3964 31.0107 13.5065 30.6358 13.5042 30.2533ZM23.4543 30.2533L23.4527 30.0048H23.3853C23.3309 29.599 23.1497 29.2184 22.8645 28.9206C22.5215 28.5625 22.0544 28.3517 21.5605 28.3331L21.5605 28.3329L21.5527 28.3329C21.1726 28.3305 20.8006 28.4425 20.484 28.6543C20.1675 28.866 19.9208 29.1679 19.7748 29.5211C19.6289 29.8744 19.5901 30.2634 19.6634 30.6388C19.7366 31.0142 19.9186 31.3595 20.1867 31.6306C20.4549 31.9018 20.797 32.0865 21.1699 32.1609C21.5427 32.2353 21.929 32.1959 22.2795 32.0478C22.6299 31.8997 22.9284 31.6498 23.1374 31.3302C23.3464 31.0107 23.4566 30.6358 23.4543 30.2533ZM10.9535 18.1448L3.68715 27.6064L5.72098 16.6021L10.9535 18.1448ZM27.3176 16.6027L29.3503 27.6008L22.1249 18.1445L27.3176 16.6027Z" fill="#6D4C3D" stroke="#6D4C3D" stroke-width="0.5"/>
</svg>
