<svg width="25" height="25" viewBox="0 0 25 25" fill="none" xmlns="http://www.w3.org/2000/svg">
<path d="M21.6062 13.5885C20.9004 13.776 20.1731 13.8709 19.4427 13.8708C17.2187 13.8708 15.1302 13.0063 13.5615 11.4375C12.5313 10.4014 11.7907 9.1134 11.4135 7.70187C11.0362 6.29034 11.0355 4.80459 11.4115 3.39271C11.4584 3.21618 11.4581 3.03041 11.4106 2.85403C11.3631 2.67766 11.27 2.51687 11.1408 2.38782C11.0115 2.25876 10.8505 2.16596 10.6741 2.11874C10.4976 2.07151 10.3119 2.07152 10.1354 2.11875C8.36787 2.58978 6.75527 3.51732 5.45937 4.80833C1.39896 8.86875 1.39896 15.4781 5.45937 19.5406C6.42451 20.5111 7.57254 21.2806 8.83702 21.8045C10.1015 22.3284 11.4573 22.5963 12.826 22.5927C14.1944 22.5965 15.5499 22.3289 16.8141 21.8051C18.0782 21.2814 19.2259 20.5121 20.1906 19.5417C21.4826 18.2455 22.4106 16.6321 22.8812 14.8635C22.928 14.6871 22.9276 14.5015 22.8801 14.3252C22.8326 14.1489 22.7397 13.9882 22.6106 13.8592C22.4816 13.7301 22.3209 13.6372 22.1446 13.5897C21.9683 13.5422 21.7827 13.5418 21.6062 13.5885ZM18.7187 18.0688C17.9468 18.8449 17.0287 19.4602 16.0174 19.8792C15.0061 20.2981 13.9217 20.5123 12.8271 20.5094C11.7321 20.5121 10.6474 20.2977 9.63576 19.8786C8.62412 19.4595 7.70561 18.844 6.93333 18.0677C3.68542 14.8188 3.68542 9.53125 6.93333 6.28229C7.56094 5.65539 8.28552 5.13376 9.07917 4.7375C8.963 6.23652 9.17182 7.74295 9.69138 9.15384C10.2109 10.5647 11.029 11.8468 12.0896 12.9125C13.1529 13.9764 14.4346 14.7967 15.8461 15.3167C17.2576 15.8366 18.7652 16.0438 20.2646 15.924C19.8662 16.7163 19.3444 17.4402 18.7187 18.0688Z" fill="#6D4C3D" stroke="#6D4C3D" stroke-width="1.5"/>
</svg>
