<svg width="25" height="25" viewBox="0 0 25 25" fill="none" xmlns="http://www.w3.org/2000/svg">
<g clip-path="url(#clip0_147_2)">
<path d="M7.04166 5.04166L5.16666 3.17708L3.69791 4.64583L5.5625 6.51041L7.04166 5.04166ZM1.04166 10.9375H4.16666V13.0208H1.04166V10.9375ZM11.4583 0.572914H13.5417V3.64583H11.4583V0.572914ZM19.8333 3.17187L21.3 4.6375L19.4354 6.50208L17.9698 5.03541L19.8333 3.17187ZM17.9583 18.9167L19.8229 20.7917L21.2917 19.3229L19.4167 17.4583L17.9583 18.9167ZM20.8333 10.9375H23.9583V13.0208H20.8333V10.9375ZM12.5 5.72916C9.05208 5.72916 6.25 8.53125 6.25 11.9792C6.25 15.4271 9.05208 18.2292 12.5 18.2292C15.9479 18.2292 18.75 15.4271 18.75 11.9792C18.75 8.53125 15.9479 5.72916 12.5 5.72916ZM12.5 16.1458C10.1979 16.1458 8.33333 14.2812 8.33333 11.9792C8.33333 9.67708 10.1979 7.8125 12.5 7.8125C14.8021 7.8125 16.6667 9.67708 16.6667 11.9792C16.6667 14.2812 14.8021 16.1458 12.5 16.1458ZM11.4583 20.3125H13.5417V23.3854H11.4583V20.3125ZM3.69791 19.3125L5.16666 20.7812L7.03125 18.9062L5.5625 17.4375L3.69791 19.3125Z" fill="#DDE7DD" stroke="#DDE7DD"/>
</g>
<defs>
<clipPath id="clip0_147_2">
<rect width="25" height="25" fill="white"/>
</clipPath>
</defs>
</svg>
